# xmcd
#
# Track frame offsets:
#	150
#	16569
#	32417
#	49972
#	67861
#	91316
#	108056
#	118302
#	147351
#	161164
#	179924
#	185839
#	206111
#	218706
#	240573
#	267162
#	294267
#
# Disc length: 4235 seconds
#
# Revision: 0
# Processed by: cddbd v1.5.1PL2 Copyright (c) Steve Scherf et al.
# Submitted via: EasyCDDAExtractor 9.0.0.1
#
DISCID=f7108911
DTITLE=EMINEM - Live At Manchester News Arena
DYEAR=2001
DGENRE=
TTITLE0=I'm Back
TTITLE1=Kill You
TTITLE2=Under The Influence
TTITLE3=Shit On You
TTITLE4=Blue and Yellow Purple Pills
TTITLE5=Stan
TTITLE6=Role Model
TTITLE7=Marshall Mathers
TTITLE8=Criminal
TTITLE9=Brain Damage
TTITLE10=Just Don't Give A Fuck
TTITLE11=Forget Abou Dre
TTITLE12=Bitch11
TTITLE13=Drug Ballad
TTITLE14=Cum On Everybody
TTITLE15=The Way I Am
TTITLE16=The Real Slim Shady
EXTD=
EXTT0=
EXTT1=
EXTT2=
EXTT3=
EXTT4=
EXTT5=
EXTT6=
EXTT7=
EXTT8=
EXTT9=
EXTT10=
EXTT11=
EXTT12=
EXTT13=
EXTT14=
EXTT15=
EXTT16=
PLAYORDER=
